<svg xmlns="http://www.w3.org/2000/svg" viewBox="0 0 16 16" width="320" height="320" shape-rendering="crispEdges">
  <!-- Background -->
  <rect width="16" height="16" fill="#1a1a2e"/>
  <!-- Hair -->
  <rect x="5" y="1" width="6" height="2" fill="#2d2d2d"/>
  <rect x="4" y="2" width="8" height="1" fill="#2d2d2d"/>
  <!-- Head -->
  <rect x="5" y="3" width="6" height="4" fill="#f4c7a0"/>
  <!-- Hair sides -->
  <rect x="4" y="3" width="1" height="1" fill="#2d2d2d"/>
  <rect x="11" y="3" width="1" height="1" fill="#2d2d2d"/>
  <!-- Eyes -->
  <rect x="6" y="4" width="1" height="1" fill="#1a1a2e"/>
  <rect x="9" y="4" width="1" height="1" fill="#1a1a2e"/>
  <!-- Mouth -->
  <rect x="7" y="6" width="2" height="1" fill="#d4956a"/>
  <!-- Body/hoodie -->
  <rect x="4" y="7" width="8" height="4" fill="#4361ee"/>
  <!-- Hoodie pocket -->
  <rect x="6" y="9" width="4" height="1" fill="#3a56d4"/>
  <!-- Arms -->
  <rect x="3" y="7" width="1" height="3" fill="#f4c7a0"/>
  <rect x="12" y="7" width="1" height="3" fill="#f4c7a0"/>
  <!-- Pants -->
  <rect x="5" y="11" width="3" height="2" fill="#2b2d42"/>
  <rect x="8" y="11" width="3" height="2" fill="#2b2d42"/>
  <!-- Shoes -->
  <rect x="5" y="13" width="3" height="1" fill="#e63946"/>
  <rect x="8" y="13" width="3" height="1" fill="#e63946"/>
  <!-- Controller in right hand -->
  <rect x="12" y="9" width="2" height="1" fill="#8d99ae"/>
  <rect x="13" y="8" width="1" height="1" fill="#8d99ae"/>
  <rect x="12" y="10" width="1" height="1" fill="#6c757d"/>
</svg>
